<?xml version="1.0" standalone="no"?>
<!DOCTYPE svg PUBLIC "-//W3C//DTD SVG 20010904//EN"
 "http://www.w3.org/TR/2001/REC-SVG-20010904/DTD/svg10.dtd">
<svg version="1.0" xmlns="http://www.w3.org/2000/svg"
 width="300.000000pt" height="300.000000pt" viewBox="0 0 300.000000 300.000000"
 preserveAspectRatio="xMidYMid meet">
<metadata>
Created by potrace 1.10, written by Peter Selinger 2001-2011
</metadata>
<g transform="translate(0.000000,300.000000) scale(0.050000,-0.050000)"
fill="#505050" stroke="none">
<path d="M1589 5894 c-81 -178 -106 -529 -46 -638 24 -43 27 -36 48 84 14 87
15 139 2 157 -14 18 -12 31 6 43 15 9 21 30 15 48 -7 18 -5 32 4 32 9 0 28 54
42 121 14 66 34 126 45 132 11 7 8 19 -7 28 -21 13 -19 25 11 58 37 40 36 41
-17 41 -46 0 -62 -16 -103 -106z"/>
<path d="M1779 5857 c-55 -184 -76 -333 -71 -497 5 -140 -7 -159 -93 -160 -72
0 -79 -104 -11 -159 33 -27 46 -62 51 -134 21 -339 50 -421 113 -322 15 24 11
60 -14 129 -37 105 -43 181 -16 224 34 54 66 1 53 -88 -11 -74 -7 -86 27 -95
22 -6 40 -27 39 -48 0 -20 5 -60 11 -89 14 -62 -37 -143 -64 -102 -10 14 -32
20 -50 13 -37 -14 1 -117 48 -133 21 -7 31 -147 41 -571 1 -25 9 -45 19 -45
10 0 18 -10 18 -21 0 -12 -9 -16 -20 -9 -11 7 -20 4 -20 -7 0 -10 12 -23 26
-29 36 -14 38 -169 2 -237 -16 -32 -23 -68 -16 -81 8 -13 5 -17 -8 -9 -11 8
-27 5 -34 -7 -11 -18 15 -29 55 -22 24 3 17 -34 -9 -50 -13 -8 -27 -5 -31 8
-6 16 -23 13 -57 -9 -27 -18 -44 -37 -39 -43 15 -15 -50 -84 -79 -84 -13 0
-23 -11 -23 -25 -1 -14 -33 -92 -72 -175 -39 -82 -76 -172 -81 -200 -6 -27
-24 -100 -41 -161 -17 -62 -33 -164 -35 -227 -4 -85 -14 -119 -37 -127 -58
-21 -104 -71 -79 -87 49 -29 3 -78 -61 -65 -64 13 -108 -11 -143 -76 -15 -29
-13 -34 12 -24 16 6 30 2 30 -10 0 -11 -18 -26 -40 -33 -32 -10 -37 -24 -27
-66 14 -63 47 -106 47 -63 1 29 64 97 120 129 26 14 26 11 -1 -22 -17 -21 -53
-87 -79 -148 -26 -60 -58 -119 -71 -130 -12 -11 -18 -32 -13 -47 7 -22 0 -22
-34 -4 -24 13 -38 31 -33 40 6 9 -14 23 -44 30 -48 12 -50 17 -20 34 19 10 35
42 35 69 0 71 -35 42 -82 -66 -54 -126 -50 -142 32 -140 84 2 122 -29 99 -80
-9 -20 -17 -46 -18 -58 -1 -13 -14 -37 -28 -55 -15 -17 -24 -41 -20 -53 7 -19
88 76 135 156 24 40 128 -12 110 -55 -8 -17 -29 -76 -48 -131 l-34 -100 -98 6
c-134 9 -168 21 -168 60 0 19 -15 93 -33 164 -45 177 19 399 140 483 10 7 13
27 7 45 -7 18 -4 32 7 32 10 0 17 7 15 15 -3 8 7 36 21 62 29 52 15 83 -21 47
-35 -35 -96 -29 -96 10 0 48 45 166 64 166 9 0 16 17 16 39 0 21 9 44 20 51
12 7 16 20 10 30 -6 9 15 35 45 58 46 35 50 44 25 61 -18 12 -20 21 -6 21 13
0 29 18 36 39 7 24 23 35 41 28 16 -6 29 -1 29 12 0 13 -8 18 -19 12 -10 -6
-24 -2 -32 10 -7 12 5 26 28 32 22 6 46 26 53 44 10 26 7 28 -13 8 -34 -34
-57 -31 -57 6 0 17 8 26 19 20 34 -21 42 25 9 58 -20 20 -29 52 -23 83 6 29
-2 63 -19 79 -16 16 -22 39 -14 52 8 14 5 18 -7 10 -12 -7 -32 15 -47 52 -14
36 -29 74 -33 85 -5 11 2 7 13 -10 18 -25 21 -23 22 11 0 23 -11 52 -25 66
-20 20 -19 28 2 41 23 14 23 19 0 27 -15 5 -43 -5 -63 -22 -21 -18 -35 -23
-32 -12 2 10 -3 36 -12 58 -12 25 -9 41 7 47 19 6 19 15 2 36 -18 21 -17 30 7
39 17 7 32 27 33 46 1 18 5 67 9 108 4 41 2 75 -6 75 -7 0 -15 18 -17 40 -2
22 -5 51 -7 65 -8 64 39 133 63 93 7 -11 14 7 15 41 1 41 -6 58 -22 50 -13 -7
-1 6 26 29 28 23 42 41 32 42 -10 0 0 16 22 35 22 19 51 56 65 83 20 37 29 42
43 20 11 -18 14 -2 6 42 -9 53 -6 63 10 40 13 -18 22 -20 22 -7 0 13 26 49 59
79 32 31 54 63 49 72 -6 8 5 10 24 2 27 -10 32 -5 22 21 -13 34 -4 38 86 37
33 -1 38 2 15 9 -37 11 -49 47 -15 47 11 0 20 13 20 29 0 16 9 34 20 41 11 7
15 -3 8 -24 -6 -20 3 -13 19 14 16 28 31 57 32 65 2 8 11 41 21 75 17 61 -24
92 -47 35 -8 -19 -10 -19 -11 1 -1 15 -30 0 -67 -35 -36 -33 -76 -61 -89 -61
-13 0 -29 -17 -35 -37 -7 -21 -39 -58 -72 -83 -32 -25 -59 -55 -59 -65 0 -11
-45 -65 -100 -120 -54 -56 -104 -118 -111 -138 -6 -20 -20 -37 -30 -37 -11 0
-19 -11 -19 -25 0 -14 -36 -65 -80 -115 -44 -49 -80 -96 -80 -104 0 -7 -13
-27 -30 -43 -49 -49 -49 -193 0 -193 17 0 31 19 32 45 0 25 6 34 11 20 15 -37
47 -30 49 10 1 26 4 28 12 7 6 -16 -3 -39 -22 -53 -26 -19 -28 -26 -6 -35 36
-13 43 -173 9 -177 -14 -2 -34 -4 -45 -6 -58 -8 -112 -56 -99 -88 7 -18 14
-44 15 -57 0 -13 7 -20 15 -15 18 10 44 -68 40 -116 -2 -19 6 -35 18 -35 11 0
21 -17 21 -37 0 -41 59 -103 98 -103 13 0 19 -8 13 -18 -6 -10 3 -23 20 -30
17 -6 29 -23 27 -37 -4 -25 12 -81 40 -135 25 -48 13 -116 -30 -165 -39 -44
-95 -173 -157 -361 -17 -52 -31 -152 -31 -221 0 -109 -7 -132 -51 -174 -100
-94 -194 -265 -283 -515 -170 -480 -203 -635 -138 -638 23 -1 31 2 17 8 -19 7
-15 24 14 65 22 31 33 63 25 71 -8 9 -4 11 9 3 21 -12 57 39 50 72 -2 8 10 15
27 15 16 0 30 9 30 20 0 11 14 20 30 20 17 0 30 16 30 35 1 99 36 79 37 -22 2
-122 118 -434 186 -496 19 -17 30 -37 24 -44 -7 -6 7 -41 30 -77 23 -36 42
-54 43 -40 0 19 19 22 70 13 52 -10 70 -6 70 14 0 15 6 49 13 75 10 37 7 44
-13 32 -20 -12 -23 -5 -14 29 12 48 -16 50 -144 10 -35 -11 -44 -9 -34 8 8 13
23 19 33 12 25 -15 1 45 -51 131 -142 234 -233 485 -191 527 12 12 22 35 22
52 1 17 23 76 50 131 l49 100 -4 -100 c-7 -206 89 -450 178 -450 92 -1 213
-50 182 -74 -39 -31 -116 -45 -116 -22 0 13 -12 11 -30 -4 -59 -49 -192 172
-241 400 l-24 110 -14 -93 c-22 -138 11 -244 147 -477 9 -16 28 -52 40 -80 24
-51 260 -72 302 -27 36 39 44 147 12 147 -35 0 -43 31 -14 49 40 24 85 -14 73
-62 -22 -86 7 -49 91 119 48 98 100 174 125 185 34 15 43 36 43 99 0 44 7 91
16 105 9 14 8 25 -3 25 -11 0 -39 -31 -63 -70 -24 -38 -51 -70 -60 -70 -10 0
-16 -16 -15 -36 8 -101 -158 -237 -217 -179 -25 25 14 58 42 35 31 -26 35 -21
90 126 39 103 58 124 105 117 41 -7 74 113 34 123 -21 6 -39 25 -39 42 0 18
-16 32 -36 32 -39 0 -129 89 -109 108 6 7 2 12 -10 12 -12 0 -18 16 -15 35 4
19 8 40 8 46 1 6 18 29 38 50 20 22 38 46 40 54 21 91 31 113 46 104 16 -10
22 22 28 176 1 30 8 60 15 66 7 7 8 25 2 39 -5 15 7 32 28 38 36 12 85 113 85
175 0 16 20 51 45 78 25 26 54 63 65 83 11 19 75 127 143 240 67 113 150 260
182 325 l60 120 25 -100 c28 -108 39 -369 16 -369 -8 0 -10 -25 -4 -56 7 -32
-2 -90 -20 -131 -17 -41 -22 -69 -11 -63 30 19 22 -24 -10 -56 -16 -16 -24
-35 -17 -41 6 -7 -3 -52 -22 -100 -23 -62 -30 -121 -23 -199 7 -65 3 -117 -9
-124 -12 -7 -20 16 -20 59 0 39 -8 71 -19 71 -10 0 -17 -87 -14 -201 2 -111
-2 -212 -10 -225 -8 -13 -1 -39 16 -57 17 -19 27 -46 23 -60 -5 -14 2 -48 16
-74 18 -35 19 -63 5 -101 -22 -55 -41 -135 -43 -177 0 -14 -7 -25 -16 -25 -8
0 -11 -30 -7 -66 6 -46 -3 -79 -29 -107 -20 -22 -43 -60 -51 -84 -8 -24 -22
-39 -32 -32 -10 6 -23 -14 -30 -45 -21 -94 -25 -103 -68 -125 -41 -22 -41 -22
2 67 37 75 40 98 20 136 -23 44 -24 43 -15 -15 7 -42 -8 -93 -49 -168 -65
-118 -75 -153 -27 -91 32 40 32 40 24 0 -4 -23 -22 -39 -42 -37 -20 1 -46 -23
-65 -62 -17 -37 -60 -78 -100 -97 -84 -40 -85 -34 -12 72 74 107 168 369 154
426 -7 29 0 48 22 56 27 11 29 8 7 -18 -22 -26 -20 -29 8 -18 22 8 30 30 26
64 -10 72 -44 76 -72 9 -13 -31 -43 -65 -68 -76 -24 -11 -43 -35 -41 -54 1
-19 -5 -30 -14 -24 -9 5 -22 -9 -30 -33 -7 -23 -48 -76 -91 -118 -44 -43 -76
-92 -74 -113 5 -42 -35 -200 -64 -252 -26 -45 -25 -95 1 -95 11 0 25 13 31 29
6 16 33 43 59 60 42 27 46 27 36 1 -41 -108 247 87 462 313 95 99 168 186 162
195 -5 8 2 37 16 63 14 27 42 99 63 159 21 61 45 118 53 128 8 10 5 37 -8 60
-34 61 -37 761 -4 962 75 463 139 712 120 468 -37 -484 -37 -537 -4 -550 18
-7 33 -25 33 -41 0 -21 12 -26 43 -16 28 9 38 6 28 -9 -7 -12 2 -28 21 -36 19
-7 52 -30 72 -50 54 -54 82 -26 45 45 -19 37 -46 60 -75 60 -42 2 -42 3 -4 18
22 8 53 11 68 5 19 -7 23 -2 13 15 -13 20 -7 20 27 2 23 -12 43 -33 45 -47 1
-13 5 -42 8 -64 23 -145 33 -342 21 -400 -5 -22 -11 -76 -13 -120 -2 -44 -8
-64 -13 -45 -5 19 -16 35 -26 35 -9 0 -11 -19 -5 -43 7 -27 4 -38 -9 -30 -13
8 -18 -11 -14 -52 7 -67 -10 -223 -23 -210 -9 9 -36 301 -36 391 0 45 -5 57
-16 38 -9 -16 -14 -71 -10 -122 3 -52 -1 -145 -9 -208 -13 -90 -10 -117 13
-130 33 -18 38 -88 11 -158 -9 -25 -19 -52 -21 -60 -3 -8 -30 -62 -62 -120
-73 -135 -103 -200 -159 -336 -62 -150 -145 -271 -273 -393 -96 -92 -139 -149
-89 -118 10 6 23 0 29 -14 8 -19 16 -17 31 7 84 132 152 154 107 36 -22 -58
-21 -60 31 -54 58 7 91 76 35 76 -53 0 -35 37 91 186 67 79 145 192 173 250
57 118 84 129 36 14 -36 -88 -38 -96 -11 -80 28 17 25 -4 -9 -56 -43 -66 -116
-343 -83 -316 14 12 32 15 40 8 7 -8 19 6 25 30 6 24 20 44 29 44 10 0 18 14
18 30 0 17 10 30 22 30 11 0 19 -25 17 -55 -7 -111 2 -165 27 -165 18 0 25 38
25 135 -1 154 23 267 48 227 8 -14 21 -25 28 -24 41 6 47 -6 41 -80 -6 -71 -3
-79 22 -58 25 21 30 17 30 -20 0 -33 8 -41 33 -31 43 16 70 -26 46 -71 -29
-54 24 -81 149 -74 l111 6 -179 180 c-98 99 -187 178 -198 176 -24 -6 -48 85
-47 184 0 70 -1 72 -9 15 -4 -36 -17 -65 -27 -65 -17 0 -27 27 -22 63 1 6 3
86 5 176 2 94 10 153 20 138 13 -20 18 -19 28 6 12 32 97 29 141 -5 12 -9 31
0 45 23 39 62 91 51 74 -16 -8 -30 -16 -73 -19 -95 -2 -22 -20 -70 -39 -107
-19 -37 -30 -71 -25 -77 6 -6 -3 -46 -21 -89 -17 -43 -27 -83 -21 -89 5 -5 28
38 50 96 133 352 158 434 141 464 -26 46 21 187 67 198 41 11 48 -7 15 -40
-12 -12 -23 -54 -24 -94 -1 -40 -8 -72 -15 -72 -7 0 -12 -13 -12 -30 0 -16 6
-30 13 -30 24 0 81 73 67 86 -7 7 3 37 23 66 31 48 31 53 2 42 -34 -13 -45 15
-14 35 10 6 18 53 17 104 -1 77 -6 87 -25 60 -52 -70 -69 40 -21 132 16 30 20
55 10 55 -10 0 -12 15 -5 33 11 28 16 25 32 -15 12 -32 22 -39 29 -21 5 15 1
46 -10 70 -118 259 -118 259 -110 168 22 -226 13 -337 -25 -322 -22 8 -30 -3
-30 -46 0 -35 -24 -87 -61 -132 -34 -41 -55 -75 -45 -75 28 1 58 29 73 68 21
57 35 27 21 -45 -7 -35 -26 -63 -42 -63 -15 0 -37 -27 -49 -60 -12 -33 -28
-60 -38 -60 -9 0 -31 -14 -48 -32 -24 -23 -51 -29 -102 -19 -62 11 -100 51
-49 51 11 0 20 15 20 33 0 19 6 28 12 21 15 -14 68 35 68 63 0 11 8 23 18 26
10 4 61 60 113 125 109 133 110 145 74 502 -11 110 -17 206 -13 213 14 24 88
-7 88 -37 0 -15 8 -23 18 -17 20 12 42 -34 42 -88 0 -20 18 -59 41 -88 23 -28
39 -63 37 -77 -8 -49 26 -136 54 -136 15 0 27 -7 26 -15 -9 -57 4 -94 23 -65
11 17 18 57 15 90 -2 33 2 71 10 83 7 12 -8 75 -34 139 -78 194 -80 208 -35
208 49 0 135 -100 152 -177 13 -58 194 -263 232 -263 10 0 19 -8 19 -17 0 -21
122 -18 157 5 32 20 -64 110 -119 111 -32 1 -98 61 -98 90 0 8 -36 60 -80 116
-44 55 -80 108 -80 118 0 30 59 43 87 19 38 -31 158 -42 188 -18 14 12 25 16
25 10 0 -6 41 11 91 38 50 26 103 48 118 48 15 0 31 7 34 15 4 8 52 46 107 84
55 38 127 95 160 125 33 31 67 56 75 56 9 0 54 34 100 75 223 198 224 191 25
-124 -93 -147 -150 -260 -150 -294 0 -30 -9 -60 -21 -68 -11 -7 -18 -28 -15
-47 3 -19 -8 -56 -26 -83 -17 -27 -37 -71 -44 -99 l-12 -50 41 50 c39 49 40
49 31 5 -6 -25 -2 -50 7 -56 9 -5 13 -26 8 -45 -5 -19 13 11 40 65 28 57 41
105 30 111 -11 7 -2 45 21 90 50 99 50 105 -3 58 -24 -21 -39 -29 -33 -18 5
11 34 70 64 130 29 61 71 137 92 170 21 33 52 87 69 120 17 33 75 107 128 165
53 58 92 109 86 115 -5 5 1 10 14 10 55 0 -123 -367 -242 -501 -87 -97 -125
-149 -93 -124 17 14 39 18 48 10 9 -8 11 -5 3 8 -13 23 40 81 58 63 5 -5 -21
-67 -58 -138 -36 -70 -68 -163 -70 -206 -3 -43 -11 -88 -19 -100 -7 -12 -19
-94 -26 -182 -7 -88 -20 -177 -29 -198 -12 -30 -10 -35 13 -22 16 10 21 9 11
-2 -9 -10 -24 -18 -34 -18 -52 0 -242 -362 -292 -554 -38 -147 -37 -133 -18
-286 17 -142 -7 -129 -56 29 -69 220 -67 439 3 584 74 153 114 205 143 188 13
-8 21 6 21 35 0 27 18 72 40 100 22 28 76 130 120 227 80 176 75 182 -19 27
-27 -44 -60 -77 -72 -72 -23 9 -93 -57 -77 -73 4 -4 -15 -29 -42 -55 -28 -26
-50 -56 -50 -67 0 -11 -14 -35 -31 -54 -146 -161 -194 -608 -90 -829 20 -44
52 -120 70 -170 72 -193 98 -240 137 -240 29 0 35 9 23 35 -37 87 -67 235 -56
278 7 31 3 47 -14 47 -47 0 -6 261 64 403 108 218 215 363 249 336 22 -19 28
-17 28 9 0 17 11 32 24 32 18 0 18 6 2 22 -17 17 -8 43 31 99 72 105 83 99 83
-46 0 -69 9 -138 20 -155 23 -36 24 -25 20 206 -2 126 6 170 39 227 25 42 37
87 30 110 -7 21 -2 52 11 67 13 16 19 40 13 54 -6 16 -10 12 -11 -10 -1 -20
-10 -31 -20 -25 -29 18 -59 -35 -67 -119 -10 -98 -175 -362 -175 -280 0 33 89
170 110 170 15 0 20 33 15 97 -9 116 52 357 75 294 11 -34 22 -25 71 58 34 59
48 101 35 106 -15 5 -15 21 1 56 24 50 73 83 73 48 0 -10 -10 -19 -23 -19 -13
0 -17 -6 -10 -14 28 -27 117 106 226 334 61 127 132 272 158 323 32 59 49 126
49 186 0 57 12 106 30 124 17 16 30 49 30 73 1 75 91 332 137 389 41 51 52 85
44 140 -3 29 31 34 48 7 16 -27 -21 -114 -68 -161 -23 -23 -41 -53 -41 -67 0
-14 -18 -61 -40 -104 -22 -43 -35 -94 -29 -113 6 -20 1 -55 -12 -79 -18 -34
-18 -41 4 -34 15 5 32 52 39 108 6 54 13 86 15 72 2 -15 12 -21 24 -13 14 8
12 23 -5 45 -19 24 -20 28 -1 17 17 -10 25 -2 25 27 0 27 8 37 23 28 14 -9 18
-5 9 9 -8 13 0 48 17 78 44 79 78 171 73 200 -2 14 7 25 20 25 14 0 19 6 12
12 -7 7 1 26 17 42 16 16 29 45 29 65 0 20 12 66 28 104 15 37 26 114 25 172
-2 58 5 108 15 111 10 3 14 19 8 35 -12 38 -123 -153 -128 -222 -2 -29 -14
-73 -27 -97 -12 -23 -17 -51 -11 -62 21 -33 -13 -160 -42 -160 -29 0 -39 82
-13 108 19 20 20 59 2 73 -20 14 23 179 47 179 10 0 13 18 6 41 -8 26 -5 38
11 35 26 -7 121 145 106 169 -5 8 0 15 11 15 11 0 16 14 9 30 -6 17 -5 63 2
103 l14 72 51 -76 c48 -70 49 -77 18 -100 -22 -16 -27 -30 -13 -38 11 -7 21
-31 21 -52 0 -22 11 -39 25 -39 17 -1 15 -7 -5 -20 -26 -17 -25 -19 4 -20 34
0 105 121 106 180 0 40 -170 202 -196 186 -11 -7 -14 -2 -6 11 8 13 5 23 -7
23 -11 0 -21 11 -21 25 0 13 -36 57 -80 97 -73 67 -79 80 -72 156 7 66 2 82
-25 83 -23 1 -20 7 12 20 31 12 40 28 31 52 -8 22 -16 26 -21 11 -14 -42 -65
-26 -85 27 -11 28 -29 46 -40 39 -19 -11 -29 16 -22 57 2 10 -17 14 -43 9 -31
-6 -65 9 -105 48 -46 42 -52 56 -26 56 18 0 47 -18 62 -41 28 -39 30 -40 65
-5 34 33 36 34 24 1 -10 -26 -4 -35 26 -35 22 0 46 -14 52 -32 8 -18 27 -27
49 -22 20 5 40 -1 45 -13 6 -17 15 -16 34 2 21 19 21 25 2 25 -18 0 -19 10 -4
38 18 33 14 37 -22 27 -34 -9 -39 -5 -26 17 11 18 -3 15 -40 -9 -40 -27 -54
-30 -47 -10 13 33 -76 106 -94 77 -8 -12 -26 -13 -46 -3 -19 10 -44 14 -56 10
-22 -8 -120 35 -120 53 0 24 -77 97 -92 88 -9 -6 -16 -1 -16 11 0 11 -32 54
-70 95 -39 41 -68 83 -64 94 4 11 -10 36 -30 56 -20 20 -36 59 -36 86 0 28 -9
50 -19 50 -11 0 -15 13 -9 28 6 15 1 34 -11 41 -11 7 -21 35 -21 62 0 46 -7
49 -110 49 -103 0 -138 -20 -88 -51 12 -7 17 -31 12 -51 -27 -104 144 -432
286 -548 53 -44 98 -90 99 -103 2 -36 58 -48 107 -24 130 67 128 67 87 21 -37
-42 -37 -43 25 -95 34 -29 62 -64 62 -79 0 -14 25 -36 55 -47 151 -58 199
-212 82 -260 -102 -42 -117 -43 -117 -2 0 20 -9 42 -20 49 -12 7 -15 21 -9 31
6 11 2 19 -10 19 -11 0 -21 12 -21 26 0 15 -12 43 -28 64 -26 36 -27 35 -21
-16 5 -51 2 -53 -68 -45 -160 18 -208 54 -108 82 52 14 50 16 -35 32 -50 9
-105 34 -123 57 -18 22 -52 40 -76 40 -73 0 -246 154 -311 277 -107 201 -173
483 -99 422 16 -13 29 -41 29 -63 0 -92 319 -623 354 -589 6 6 36 -1 66 -17
30 -16 60 -24 66 -18 5 6 49 -8 96 -31 47 -22 97 -41 110 -41 14 0 28 -10 32
-22 8 -24 116 -3 116 22 0 9 -37 23 -83 30 -320 55 -661 447 -706 816 l-14
115 -174 -3 c-124 -2 -160 -8 -126 -21 36 -13 45 -28 36 -62 -5 -25 -3 -83 6
-129 17 -92 -18 -150 -79 -132 -16 4 -12 -3 10 -16 22 -14 45 -30 50 -36 6 -7
27 -22 49 -33 21 -12 47 -48 58 -80 10 -33 44 -98 76 -145 31 -47 57 -104 57
-125 0 -22 14 -39 30 -39 23 0 27 -13 18 -50 -14 -58 20 -68 50 -15 10 19 26
28 34 20 8 -9 -2 -28 -23 -44 -47 -34 -28 -44 121 -57 109 -10 223 -48 203
-67 -16 -17 -311 34 -325 56 -6 9 -28 17 -49 17 -23 0 -40 14 -41 35 -1 21 -5
25 -11 10 -6 -14 -19 -25 -29 -25 -10 0 -16 11 -13 25 3 14 -7 22 -22 19 -18
-4 -24 6 -16 26 13 33 -25 110 -53 110 -28 0 -73 54 -58 70 8 7 -4 11 -26 7
-38 -7 -42 0 -47 83 -2 22 -16 40 -33 40 -20 0 -30 20 -30 58 0 77 -18 122
-50 122 -33 0 -48 81 -26 141 10 27 13 68 7 92 -6 24 -2 67 8 96 16 39 14 51
-7 51 -15 0 -33 -15 -40 -32 -9 -24 -19 -27 -38 -12 -18 15 -37 9 -68 -24 -32
-33 -36 -45 -15 -45 16 0 29 7 29 16 0 10 10 17 23 17 13 0 8 -17 -13 -40 -19
-21 -43 -34 -53 -28 -9 6 -17 -17 -17 -51 0 -34 -10 -78 -23 -98 -16 -26 -17
-53 -2 -95 l20 -58 21 53 c12 29 31 59 43 66 11 7 21 49 21 92 0 44 8 79 18
79 21 0 43 -73 27 -89 -15 -14 -22 -235 -9 -259 5 -9 22 4 36 30 21 37 27 40
27 13 1 -19 12 -35 26 -35 17 -1 18 -5 4 -15 -28 -19 -56 -91 -29 -75 11 7 20
-2 20 -19 0 -17 10 -31 21 -31 12 0 16 -9 9 -20 -7 -11 6 -20 29 -20 23 0 41
-13 41 -30 0 -16 11 -30 25 -31 14 0 7 -16 -17 -35 -22 -19 -38 -48 -33 -64 5
-20 0 -18 -15 5 -12 19 -35 35 -50 35 -16 0 -24 12 -18 28 6 15 1 34 -11 41
-11 7 -21 2 -21 -12 0 -13 -25 0 -56 29 -31 30 -65 54 -76 54 -28 0 -107 109
-169 230 -48 95 -68 153 -118 345 -24 89 -161 136 -161 55 0 -16 14 -30 30
-30 33 0 41 -33 11 -43 -24 -9 33 -214 71 -259 16 -17 28 -41 28 -52 0 -12 14
-32 30 -46 17 -14 27 -30 22 -35 -5 -5 8 -28 29 -50 20 -23 33 -49 27 -58 -6
-9 10 -25 36 -35 66 -25 121 -93 121 -150 0 -34 9 -46 29 -38 15 6 46 -8 68
-31 41 -45 70 -58 48 -23 -7 11 -3 20 9 20 11 0 21 -11 22 -25 0 -14 13 -8 30
14 29 38 86 3 88 -54 1 -9 30 -12 66 -8 54 7 168 -17 135 -27 -5 -2 -113 -8
-240 -13 -251 -10 -347 -31 -414 -92 -69 -62 -407 10 -390 84 3 14 -9 36 -27
49 -17 13 -29 32 -26 43 16 52 -122 203 -254 276 -107 60 -291 73 -356 24 -42
-32 -104 -19 -76 16 10 13 24 57 31 98 8 41 22 75 33 75 10 0 18 7 17 15 -12
73 5 123 37 112 29 -9 30 -7 6 10 -24 17 -25 28 -4 68 14 25 28 63 31 82 2 20
18 44 33 54 25 16 25 19 -1 20 -20 1 -17 7 10 19 30 13 17 18 -55 19 -87 1
-95 -3 -106 -54 -7 -30 -18 -68 -24 -85 -7 -16 -14 -51 -17 -77 -3 -25 -14
-57 -23 -70 -30 -39 -72 -200 -67 -251 13 -117 -105 -331 -134 -244 -6 17 -15
18 -34 2 -18 -15 -28 -13 -37 9 -11 30 7 39 67 33 27 -3 27 -1 0 17 -25 16
-26 27 -5 60 34 55 32 101 -3 56 -42 -56 -79 -44 -62 20 8 30 18 78 23 105 12
68 46 177 77 250 44 101 57 139 52 157 -2 10 6 28 17 41 15 19 -2 26 -69 29
l-88 5 -43 -145z m2155 23 c22 0 17 -11 -17 -39 -43 -35 -49 -36 -71 -7 -30
39 -13 73 28 57 16 -6 43 -11 60 -11z m-24 -220 c7 -11 -12 -29 -42 -41 -53
-20 -87 -2 -88 46 0 23 116 18 130 -5z m-1714 -358 c41 -20 106 -43 144 -51
163 -32 361 -99 353 -119 -4 -12 -24 -19 -45 -15 -21 3 -164 25 -318 49 -154
23 -282 43 -285 44 -11 6 46 130 60 130 9 0 50 -17 91 -38z m1653 -109 c63
-59 65 -92 6 -95 -118 -7 -164 28 -99 74 25 17 39 39 33 49 -20 34 8 20 60
-28z m-1599 -74 c66 -10 152 -22 190 -28 276 -38 400 -121 400 -265 0 -104
-125 -390 -199 -456 -96 -85 -763 2 -731 95 4 14 12 52 17 85 9 59 46 170 58
170 3 0 34 8 70 19 58 16 73 11 149 -52 88 -74 163 -81 361 -35 35 8 55 4 55
-10 0 -33 73 -27 109 10 30 30 27 35 -33 66 -56 30 -69 30 -90 6 -61 -73 -469
20 -421 96 27 43 162 57 185 20 7 -12 26 -13 46 -3 50 25 278 13 313 -16 27
-22 31 -18 31 26 0 96 -153 163 -370 162 -237 -1 -255 -6 -311 -82 -75 -102
-99 -43 -47 118 25 81 -129 104 -220 33 -60 -47 -93 -38 -51 14 59 71 164 77
489 27z m-278 -139 c-7 -33 -17 -87 -24 -120 -15 -81 -43 -59 -59 49 -15 101
-3 131 54 131 34 0 38 -9 29 -60z m2078 -62 c77 -12 163 -25 190 -30 28 -5 91
-12 141 -16 148 -12 241 -72 265 -171 34 -135 -131 -556 -231 -590 -72 -25
-72 -25 -60 153 l10 154 73 32 c143 62 172 82 178 121 11 75 -224 173 -641
267 -118 27 -215 28 -255 2 -23 -15 -17 -19 27 -20 86 0 54 -48 -42 -61 -46
-6 -81 -6 -79 0 2 6 -2 11 -10 11 -8 0 -26 15 -40 33 -32 41 -115 38 -142 -5
-44 -70 54 -151 171 -141 19 1 35 -6 35 -17 0 -11 -18 -20 -40 -20 -22 0 -40
-13 -40 -28 0 -31 42 -52 108 -52 24 0 53 -8 63 -17 35 -31 246 -86 345 -90
119 -4 160 -34 174 -130 6 -40 19 -97 28 -126 34 -107 -35 -118 -392 -65 -247
37 -417 94 -447 150 -12 22 -29 34 -38 29 -10 -6 -13 5 -8 25 5 20 -13 119
-42 219 -114 407 24 482 699 383z m-2008 -119 c-52 -43 -74 -39 -55 10 6 17
32 31 57 30 l46 0 -48 -40z m2754 -2 c-8 -55 -56 -74 -56 -22 0 42 16 65 45
65 10 0 15 -20 11 -43z m-1660 -62 c27 -33 97 -224 115 -315 15 -77 107 -260
130 -260 17 0 94 -119 132 -204 39 -86 -67 -194 -208 -210 -93 -10 -104 -8
-93 21 7 18 25 33 40 33 15 0 28 13 28 29 0 37 -62 28 -195 -31 -83 -36 -103
-54 -94 -82 14 -43 -34 -68 -86 -45 -19 8 -53 18 -74 23 -22 4 -45 16 -52 27
-7 11 -29 14 -49 6 -25 -9 -32 -7 -22 10 8 12 5 23 -7 23 -30 0 -140 182 -141
232 0 49 154 294 207 327 23 15 32 16 24 2 -7 -11 0 -21 16 -21 19 0 32 28 38
85 29 270 194 467 291 350z m1869 -53 c44 -2 55 -11 55 -50 0 -27 9 -52 19
-55 52 -18 23 -429 -45 -637 -17 -49 -50 -184 -75 -300 -78 -368 -184 -605
-346 -777 -132 -139 -573 -461 -573 -418 0 15 -6 17 -15 5 -23 -32 -146 -114
-177 -118 -15 -2 -51 -25 -79 -50 -51 -43 -52 -44 -39 -3 20 65 -79 19 -170
-79 -54 -59 -222 -111 -190 -60 18 30 -29 24 -60 -7 -14 -14 -70 -29 -123 -31
-53 -3 -133 -7 -177 -9 -323 -16 -570 196 -644 552 -34 166 -84 294 -237 605
-137 278 -165 374 -199 670 -6 50 -15 104 -19 120 -75 259 -28 332 169 260 72
-26 159 -40 255 -40 95 0 145 -8 145 -23 0 -16 -43 -18 -155 -7 -209 22 -303
20 -328 -5 -46 -46 467 -77 538 -33 91 58 41 -16 -112 -167 -227 -224 -281
-366 -198 -515 18 -33 49 -89 68 -125 43 -81 72 -84 60 -5 -12 74 21 100 39
31 7 -28 19 -51 28 -51 9 0 37 -22 63 -50 63 -66 74 -63 81 25 7 84 64 116 85
47 13 -40 46 -57 146 -74 30 -5 79 -19 109 -31 30 -11 100 -18 156 -14 99 7
102 6 90 -42 -12 -46 -10 -46 52 15 46 45 73 58 96 46 18 -10 66 -13 107 -9
55 6 79 0 87 -22 8 -21 22 -25 45 -13 49 26 143 21 143 -8 0 -30 -49 -74 -65
-58 -7 6 -22 -8 -35 -32 -18 -34 -29 -38 -51 -19 -23 19 -36 15 -65 -21 -57
-71 -131 -39 -120 52 10 83 -16 90 -34 9 -17 -78 -57 -108 -122 -92 -28 7 -64
3 -78 -9 -59 -49 -184 11 -174 83 7 43 2 58 -13 49 -13 -8 -23 -26 -23 -41 0
-82 -144 -73 -166 11 -6 22 -28 38 -52 38 -24 0 -42 13 -42 30 0 33 -17 37
-55 14 -72 -46 146 -202 329 -236 42 -7 85 -20 96 -28 31 -22 284 -25 298 -3
7 10 39 17 72 15 32 -2 62 5 66 16 4 12 12 2 18 -22 8 -30 4 -40 -14 -33 -15
5 -32 -9 -40 -33 -7 -23 -24 -38 -37 -34 -13 5 -39 -5 -59 -22 -39 -34 -299
-49 -279 -16 7 11 -4 13 -24 5 -20 -8 -48 -4 -62 8 -18 15 -38 15 -65 1 -47
-25 -184 12 -184 51 0 16 -13 21 -33 13 -23 -9 -29 -5 -19 11 9 14 2 23 -17
23 -20 0 -37 24 -44 61 -14 68 -84 130 -114 100 -12 -12 -10 -31 6 -50 15 -18
21 -55 15 -88 -14 -68 126 -230 180 -209 25 10 27 5 10 -26 -14 -27 -12 -45 6
-62 21 -19 29 -18 38 5 12 32 83 40 101 10 7 -10 36 -16 66 -13 30 2 75 -4 99
-15 29 -12 54 -12 70 0 14 11 46 18 71 16 25 -2 45 5 45 15 0 10 7 14 16 9 9
-6 56 9 105 32 49 23 100 40 113 37 14 -2 31 19 38 47 7 28 20 46 30 40 36
-22 160 94 146 136 -8 27 -4 37 13 31 14 -4 58 22 97 58 40 36 99 75 132 86
163 54 124 113 -84 128 -69 5 -135 15 -147 22 -73 46 -412 95 -679 100 -306 5
-340 9 -383 43 -15 12 -50 27 -78 34 -29 6 -84 44 -124 82 -40 39 -82 71 -94
71 -29 0 -26 18 9 53 16 16 30 25 30 19 0 -7 18 3 39 22 21 18 34 41 29 50 -6
9 -1 16 11 16 11 0 21 9 21 21 0 118 70 58 160 -136 21 -47 47 -85 57 -85 10
0 23 -17 28 -38 13 -48 216 -46 270 4 37 32 227 74 339 74 70 0 246 136 246
190 0 160 210 35 415 -247 184 -253 196 -297 116 -418 -27 -41 -60 -122 -72
-180 -12 -58 -31 -105 -41 -105 -10 0 -18 -13 -18 -28 0 -15 -13 -33 -30 -39
-16 -7 -30 -21 -30 -32 0 -12 14 -21 30 -21 17 0 30 13 30 28 0 15 14 33 31
40 17 6 49 52 71 101 21 49 48 95 59 101 10 7 19 29 19 50 0 20 13 50 29 66
16 16 41 67 55 112 14 45 32 82 39 82 26 0 77 -63 77 -94 0 -24 6 -26 27 -8
31 25 20 122 -13 122 -31 0 -154 123 -154 154 0 14 -22 46 -50 70 -27 24 -50
50 -50 58 0 24 -108 138 -131 138 -30 0 -99 77 -83 93 7 6 93 17 191 22 151 9
188 18 234 58 30 26 79 47 107 47 127 0 219 116 311 390 19 54 41 108 50 120
8 11 21 45 29 76 14 58 68 90 140 82 23 -3 67 -5 97 -6z m-957 -16 c8 -8 45
-12 83 -9 77 7 209 -30 209 -59 0 -10 34 -19 75 -20 l75 -2 -97 -30 c-90 -27
-98 -27 -124 7 -26 35 -28 35 -28 -6 -1 -62 -47 -92 -104 -69 -26 11 -114 39
-197 63 -195 57 -246 99 -119 99 49 0 103 9 119 20 36 23 88 26 108 6z m1167
-125 c-1 -55 -9 -95 -18 -89 -9 6 -17 55 -17 110 0 55 8 95 18 89 10 -6 17
-55 17 -110z m13 -246 c-8 -36 -14 -81 -13 -100 2 -19 -5 -35 -14 -35 -15 0
-9 119 9 175 18 53 32 21 18 -40z m-1537 -223 c55 -15 135 -34 179 -41 44 -7
107 -18 140 -25 l60 -13 -77 -14 c-90 -16 -322 24 -412 70 -111 58 -54 70 110
23z m-1788 -868 c-13 -4 -23 -20 -23 -34 0 -15 -10 -34 -23 -42 -16 -10 -19 3
-8 44 16 63 56 100 69 63 4 -12 -2 -26 -15 -31z m1879 -44 c-37 -33 -74 -60
-83 -60 -32 0 6 76 48 96 85 42 103 23 35 -36z m-1964 8 c-13 -16 -36 -25 -50
-20 -16 6 -22 -1 -16 -17 14 -36 -30 -61 -57 -34 -26 26 48 93 109 98 32 2 35
-2 14 -27z m-109 -188 c-63 -77 -123 -140 -134 -140 -25 0 11 46 163 208 106
113 94 85 -29 -68z m61 -20 c-61 -88 -85 -106 -48 -35 45 85 83 136 94 126 5
-6 -15 -46 -46 -91z m3076 -55 c-7 -19 -26 -55 -41 -79 -16 -24 -30 -56 -33
-70 -2 -14 -24 -64 -49 -111 -24 -47 -38 -85 -30 -85 7 0 0 -16 -17 -35 -16
-19 -36 -51 -43 -71 -7 -20 -21 -31 -32 -25 -11 7 -6 42 13 86 17 41 29 77 28
80 -4 7 202 345 210 345 4 0 1 -16 -6 -35z m-3180 -65 c-6 -22 -18 -40 -26
-40 -9 0 -26 -29 -39 -65 -17 -50 -27 -58 -40 -36 -19 31 1 85 55 146 40 47
63 44 50 -5z m530 -395 c18 -55 17 -68 -12 -83 -31 -16 -42 54 -25 156 2 17
15 -9 37 -73z m61 -70 c-10 -51 24 -137 49 -123 16 9 18 7 4 -7 -42 -43 -100
-46 -125 -5 -20 32 -20 39 0 35 14 -3 22 10 19 30 -3 19 6 48 20 64 32 37 39
38 33 6z m-992 -303 c7 7 7 -7 1 -30 -7 -28 -27 -42 -60 -42 -26 0 -45 7 -40
15 4 8 14 32 21 52 10 29 20 32 40 15 15 -12 32 -16 38 -10z m1353 -158 c-2
-35 -7 -48 -12 -29 -12 46 -22 44 -68 -10 l-38 -45 5 67 c7 116 117 132 113
17z m-36 -198 c13 -24 25 -58 27 -75 2 -17 11 -57 20 -88 28 -97 -59 -298
-172 -395 -55 -49 -57 -48 -57 15 0 30 6 48 13 41 15 -16 67 22 67 48 0 10
-18 18 -40 18 -22 0 -40 8 -40 18 0 10 18 14 40 8 35 -9 38 -3 28 50 -7 33 -2
92 11 131 20 60 28 111 39 248 3 40 38 29 64 -19z m1596 -240 c-45 -87 -78
-99 -78 -26 0 31 11 50 30 50 17 0 30 17 30 37 0 48 23 70 42 40 8 -14 -3 -59
-24 -101z m-2909 -34 c6 -10 31 -13 55 -7 40 11 40 7 -14 -67 -86 -117 -88
-118 -80 -56 4 32 8 65 9 74 0 9 10 11 21 4 11 -7 14 1 7 20 -10 27 -19 23
-50 -24 -41 -62 -47 -55 -17 23 19 52 49 66 69 33z m691 -121 c0 -86 -64 -281
-93 -281 -26 0 -6 109 36 192 11 24 22 66 24 95 4 73 33 67 33 -6z m-1018
-196 c72 10 76 -19 5 -46 -62 -24 -61 -24 -72 41 -5 28 -5 38 0 23 5 -17 30
-24 67 -18z m1740 -151 c-36 -36 -50 3 -20 59 28 53 28 53 35 8 3 -25 -3 -55
-15 -67z m-1264 -111 c23 -42 -22 -123 -68 -123 -15 0 -34 -11 -42 -23 -10
-16 -4 -20 19 -11 41 16 44 -24 6 -76 -41 -56 -91 -54 -106 3 -9 36 1 64 37
103 27 30 59 79 72 109 27 64 55 70 82 18z m-295 -44 c-26 -21 -56 -34 -66
-27 -30 18 22 68 70 67 42 0 42 -1 -4 -40z m1029 -246 c-17 -59 -45 -119 -62
-133 -39 -32 -38 -24 8 71 20 44 44 111 53 149 8 39 19 59 24 45 4 -13 -6 -73
-23 -132z"/>
<path d="M2924 4029 c-22 -25 -18 -29 25 -29 32 0 51 11 51 30 0 38 -42 38
-76 -1z"/>
<path d="M4907 4629 c-35 -27 -35 -29 8 -41 25 -7 45 -23 45 -35 1 -29 39 29
40 60 0 37 -53 46 -93 16z"/>
<path d="M4705 3813 c-14 -31 -20 -64 -14 -74 6 -11 0 -19 -13 -19 -14 0 -19
-6 -12 -13 8 -7 -2 -25 -21 -39 -32 -25 -31 -27 11 -27 26 -1 41 7 35 17 -6
11 3 33 20 50 19 19 29 57 25 96 l-6 65 -25 -56z"/>
<path d="M3001 3532 c25 -26 43 -29 80 -14 27 11 36 20 19 21 -16 1 -52 7 -80
14 -46 11 -48 10 -19 -21z"/>
<path d="M2336 3290 c-12 -21 11 -203 28 -221 6 -6 15 6 20 25 11 46 -32 222
-48 196z"/>
<path d="M4490 3200 c-7 -22 -21 -35 -32 -29 -10 7 -13 21 -6 32 8 13 -5 11
-31 -2 -92 -50 -93 -139 -1 -101 72 30 161 140 113 140 -17 0 -36 -18 -43 -40z"/>
<path d="M4120 2790 c-14 -16 -41 -30 -60 -30 -20 0 -41 -14 -48 -31 -7 -19
-22 -25 -37 -16 -17 10 -16 4 2 -19 25 -30 23 -34 -13 -34 -24 0 -47 -17 -54
-42 -18 -55 7 -77 39 -33 14 19 32 35 39 35 22 0 85 67 98 105 7 20 41 41 75
48 44 9 54 18 36 30 -38 23 -49 21 -77 -13z"/>
<path d="M3140 2551 c0 -16 17 -39 37 -49 32 -18 36 -14 28 29 -10 52 -65 69
-65 20z"/>
<path d="M3278 2549 c-2 -5 -4 -16 -6 -24 -1 -8 -10 -26 -18 -40 -19 -29 -20
-29 50 -34 56 -3 83 26 59 62 -15 22 -82 51 -85 36z"/>
<path d="M2006 5971 c-27 -30 -19 -106 14 -139 13 -13 20 -10 20 13 0 17 12
44 26 59 52 52 56 96 8 95 -24 0 -55 -13 -68 -28z"/>
<path d="M2736 5940 c-5 -33 -3 -60 4 -60 7 0 13 -12 13 -27 0 -23 98 -240
199 -440 15 -31 28 -68 28 -82 0 -14 13 -37 30 -51 16 -13 25 -33 19 -42 -7
-10 2 -23 18 -30 17 -6 39 -38 51 -70 23 -67 64 -90 112 -63 29 16 27 25 -18
80 -29 33 -52 67 -52 75 0 7 -18 37 -40 65 -22 28 -40 69 -40 93 0 23 -17 78
-39 122 -77 160 -101 227 -101 288 0 34 -10 62 -22 62 -14 0 -19 27 -14 70 12
101 -133 111 -148 10z"/>
<path d="M4748 5931 c0 -39 12 -74 26 -80 14 -5 26 -33 26 -60 0 -28 9 -51 20
-51 11 0 20 -14 20 -31 0 -16 13 -35 30 -42 16 -6 25 -19 19 -29 -6 -10 -2
-18 8 -18 31 0 14 95 -24 136 -18 21 -27 43 -20 50 7 7 2 26 -12 43 -13 16
-19 38 -12 49 12 19 -45 102 -69 102 -7 0 -12 -31 -12 -69z"/>
<path d="M4961 5945 c2 -63 35 -154 38 -105 5 67 60 -75 60 -156 1 -57 11 -89
31 -97 17 -6 30 -23 30 -38 0 -15 16 -36 36 -47 30 -16 35 -11 31 35 -2 29 -6
53 -8 53 -6 0 -20 93 -21 135 0 19 -9 39 -19 46 -11 6 -19 28 -19 47 0 33
-122 182 -149 182 -6 0 -10 -25 -10 -55z"/>
<path d="M5300 5963 c0 -22 8 -43 18 -46 22 -9 3 -317 -20 -317 -10 0 -23 36
-30 80 -7 44 -21 80 -30 80 -21 0 2 -167 26 -191 24 -24 87 28 90 74 10 143
31 256 47 247 9 -6 12 -27 6 -46 -8 -24 -5 -27 7 -9 47 64 19 155 -49 161 -54
5 -65 0 -65 -33z"/>
<path d="M5529 5969 c36 -37 33 -27 41 -166 4 -58 13 -112 20 -120 8 -7 12 19
10 57 -6 111 -1 143 19 130 24 -14 50 79 32 109 -7 11 -45 21 -84 21 -63 0
-67 -3 -38 -31z"/>
<path d="M5685 5922 c6 -49 1 -84 -13 -89 -13 -5 -6 -22 18 -42 22 -19 30 -29
17 -23 -41 21 -73 -40 -47 -89 21 -38 30 -115 38 -307 1 -32 8 -52 16 -45 8 8
13 57 11 109 l-2 94 17 -99 c21 -116 22 -114 -63 -124 -36 -4 -71 -17 -78 -29
-10 -16 -18 -16 -28 1 -11 17 -24 15 -50 -8 -20 -18 -65 -36 -101 -41 -36 -4
-75 -17 -87 -29 -12 -12 -37 -21 -57 -21 -32 0 -32 -5 8 -50 46 -53 136 -68
136 -23 0 22 111 63 222 80 17 3 52 25 78 49 36 33 52 38 63 19 22 -34 21 -60
-2 -46 -10 6 -24 2 -31 -9 -7 -11 1 -25 17 -31 18 -7 24 -27 18 -53 -7 -27 2
-52 26 -69 51 -37 76 -34 60 8 -9 23 -7 28 6 15 10 -11 24 -51 31 -90 10 -61
9 -64 -10 -26 -30 57 -70 71 -119 41 -33 -21 -44 -20 -59 5 -18 27 -29 14 -22
-25 1 -9 -15 -5 -35 8 -35 22 -122 9 -98 -14 9 -10 121 -25 200 -28 28 -1 35
-19 35 -88 0 -104 -9 -116 -73 -92 -38 14 -46 13 -34 -6 9 -14 13 -42 10 -62
-4 -23 2 -32 16 -24 12 8 16 22 10 32 -17 28 19 23 50 -6 22 -20 25 -19 15 10
-15 43 17 47 33 5 11 -27 -9 -39 -52 -32 -24 3 -19 -8 66 -135 65 -97 87 -117
107 -98 30 28 18 98 -21 121 -15 9 -27 27 -27 40 1 17 6 16 18 -3 29 -45 42
25 20 106 -11 39 -15 80 -9 90 7 10 3 24 -9 31 -30 19 -24 50 7 38 20 -7 26 5
21 46 -4 31 -8 105 -10 164 -3 95 -7 104 -29 73 -32 -42 -59 59 -44 161 8 51
9 50 12 -16 2 -40 12 -79 23 -86 33 -20 24 195 -10 244 -23 33 -24 45 -5 53
19 7 19 14 2 26 -13 10 -28 62 -35 117 -11 97 -10 98 9 21 29 -113 34 -107 27
34 -11 202 -48 282 -138 291 l-74 7 9 -81z m53 -227 c-4 -101 -33 -147 -30
-50 1 52 9 95 17 95 8 0 14 -20 13 -45z"/>
<path d="M5432 5755 c-7 -25 -18 -112 -24 -195 -15 -184 39 -148 64 42 7 59
22 125 33 145 13 27 12 34 -3 24 -12 -7 -22 -4 -22 8 0 39 -35 21 -48 -24z"/>
<path d="M1986 5767 c7 -6 0 -36 -14 -65 -15 -28 -22 -65 -17 -80 6 -17 1 -22
-12 -14 -14 9 -18 3 -11 -15 6 -16 1 -35 -11 -42 -27 -17 -28 -51 -1 -51 11 0
18 7 16 15 -3 8 7 36 21 62 15 25 21 51 15 57 -6 6 3 36 19 68 35 68 36 78 6
78 -13 0 -18 -6 -11 -13z"/>
<path d="M5228 5491 c15 -62 60 -116 80 -97 19 20 14 126 -6 126 -10 0 -34 6
-53 13 -30 12 -33 5 -21 -42z"/>
<path d="M4783 5447 c5 -24 27 -39 67 -43 44 -4 52 0 31 14 -16 11 -36 15 -46
9 -9 -5 -14 1 -10 14 3 13 -7 28 -22 34 -18 6 -24 -3 -20 -28z"/>
<path d="M5605 4866 c-3 -38 1 -47 13 -29 12 19 21 21 31 5 23 -37 45 -25 41
23 -5 71 -80 72 -85 1z"/>
<path d="M5366 4721 c27 -73 122 -196 101 -131 -7 22 -18 49 -24 60 -7 11 -12
40 -12 63 -1 24 -8 50 -16 59 -8 8 -15 3 -15 -11 0 -20 -6 -21 -29 -2 -25 21
-25 15 -5 -38z"/>
<path d="M5540 4757 c0 -22 76 -158 100 -177 7 -5 28 -44 47 -85 19 -41 43
-75 54 -75 33 0 21 48 -31 124 -27 41 -53 93 -56 116 -12 75 -114 163 -114 97z"/>
<path d="M5751 4346 c-7 -29 -5 -58 5 -64 10 -7 19 -25 21 -42 6 -76 29 -159
40 -152 12 7 16 -19 23 -153 1 -20 11 -31 21 -24 11 6 19 2 19 -10 0 -11 10
-21 22 -21 14 0 18 19 10 48 -6 26 -17 100 -23 163 -7 75 -23 125 -44 141 -28
20 -29 29 -7 56 19 23 20 32 3 32 -13 0 -19 7 -13 16 5 9 -7 26 -27 39 -32 20
-39 16 -50 -29z"/>
<path d="M5880 4308 c0 -7 24 -41 53 -75 47 -55 51 -57 38 -15 -11 32 -8 43 7
33 14 -8 17 -1 9 20 -10 25 -16 27 -29 6 -12 -20 -19 -18 -29 9 -12 32 -49 49
-49 22z"/>
<path d="M5535 4186 c-57 -15 -52 -134 8 -237 36 -60 37 -72 11 -98 -17 -17
-26 -54 -22 -91 5 -43 0 -58 -15 -48 -14 9 -18 5 -9 -8 14 -23 63 -13 108 22
14 11 18 26 8 32 -29 19 -50 102 -25 102 11 0 21 -10 21 -23 0 -13 6 -18 13
-11 7 7 1 27 -13 44 -14 17 -20 36 -14 43 7 7 0 30 -15 52 -15 22 -23 54 -16
71 8 22 4 26 -15 14 -18 -11 -21 -9 -10 10 14 23 36 143 25 138 -3 -2 -21 -7
-40 -12z"/>
<path d="M5695 4030 c5 -77 18 -156 28 -175 11 -20 13 -45 6 -56 -6 -11 -12
-78 -13 -149 0 -71 -6 -126 -14 -121 -7 4 -14 -29 -15 -73 -1 -44 -14 -88 -29
-97 -15 -9 -20 -23 -12 -31 8 -8 0 -30 -17 -50 -29 -32 -28 -35 11 -48 54 -17
48 -25 95 132 28 95 34 143 19 169 -16 29 -14 33 15 22 31 -12 34 3 26 162 -5
106 -17 175 -30 175 -12 0 -28 7 -37 15 -8 8 -4 15 9 15 16 0 19 18 10 55 -8
30 -13 71 -12 90 1 19 -5 35 -15 35 -9 0 -21 16 -27 35 -5 19 -4 -28 2 -105z"/>
<path d="M5420 4056 c0 -25 -6 -68 -13 -96 -10 -38 -7 -45 12 -28 32 31 48
141 22 157 -12 8 -21 -6 -21 -33z"/>
<path d="M5392 3875 c-38 -132 -69 -272 -68 -305 0 -22 -27 -117 -61 -211 -34
-94 -66 -204 -71 -244 -5 -40 -14 -91 -21 -112 -14 -45 18 -76 41 -40 9 14 6
18 -9 9 -38 -23 27 155 131 363 18 36 35 87 38 113 2 26 10 82 17 125 7 42 17
118 23 167 5 50 15 106 20 125 6 19 1 35 -11 35 -12 0 -25 -11 -29 -25z"/>
<path d="M5952 3863 c-6 -10 -7 -38 -2 -63 5 -25 -2 -64 -15 -88 -23 -39 -25
-36 -35 36 -5 44 -23 83 -38 88 -22 7 -25 -6 -16 -58 29 -171 33 -206 21 -178
-16 34 -64 -188 -66 -306 0 -42 -14 -101 -29 -131 -16 -30 -33 -108 -38 -174
-6 -70 -19 -117 -31 -114 -12 2 -17 -7 -11 -22 5 -14 1 -48 -9 -75 -19 -52 3
-138 36 -138 12 0 16 34 8 90 -8 60 -4 100 14 121 33 40 58 5 59 -81 1 -55 3
-57 29 -24 15 20 32 29 38 19 13 -21 -18 -74 -46 -77 -12 -2 -30 -4 -41 -5
-11 -2 -20 -22 -20 -44 0 -23 8 -36 18 -30 24 14 39 -72 20 -120 -12 -33 -17
-29 -29 25 -13 62 -109 176 -109 129 0 -12 8 -23 17 -23 10 0 24 -37 31 -83 7
-46 20 -93 28 -105 18 -28 19 -191 1 -180 -8 5 -24 -24 -37 -63 -13 -40 -34
-76 -47 -81 -13 -4 -25 -47 -28 -93 -2 -47 -7 -103 -10 -125 -4 -31 5 -39 40
-35 25 2 45 -4 45 -15 0 -11 -11 -18 -25 -15 -13 3 -27 -16 -31 -42 -5 -30 0
-43 14 -34 14 8 22 -6 22 -37 0 -31 16 -59 43 -74 42 -22 42 -20 30 75 -7 53
-4 147 6 207 14 88 12 115 -11 132 -34 27 -37 68 -4 68 19 0 19 5 0 24 -29 29
-32 76 -4 76 11 0 20 -14 20 -31 0 -23 12 -28 40 -19 30 10 40 4 40 -24 -1
-31 -4 -32 -22 -6 -19 27 -20 27 -12 0 4 -16 21 -28 36 -26 15 2 54 -36 85
-86 32 -50 62 -85 68 -80 6 6 0 24 -13 40 -18 22 -18 30 0 36 19 6 19 18 2 47
-13 22 -23 27 -23 13 -1 -15 -10 -21 -22 -13 -15 9 -15 20 0 38 11 13 14 33 6
42 -8 10 1 6 20 -9 23 -18 35 -19 35 -4 0 12 -9 22 -20 22 -27 0 -147 115
-152 146 -2 13 -8 47 -13 74 -5 28 -5 39 -1 25 5 -14 17 -25 27 -25 10 0 13
13 7 29 -6 16 -1 45 11 65 19 31 20 29 11 -14 -9 -41 2 -58 60 -95 l70 -45 0
44 c0 24 -18 63 -41 87 -37 39 -39 52 -18 135 13 50 19 103 14 118 -6 14 -17
-8 -25 -49 -8 -41 -23 -75 -33 -75 -18 0 -7 68 25 155 10 27 9 45 -2 45 -11 0
-20 10 -20 21 0 12 9 16 20 9 19 -12 30 64 25 165 -2 25 6 41 16 34 11 -6 19
-2 19 10 0 11 -8 21 -18 21 -30 0 -45 283 -22 427 17 108 16 144 -4 169 -22
27 -21 30 7 19 28 -10 33 5 34 106 2 116 -3 137 -25 102z m-122 -757 c-8 -115
-8 -116 -39 -75 -39 52 -42 103 -4 71 22 -18 26 -12 17 31 -6 32 -2 48 10 41
11 -7 18 -38 16 -68z m58 -191 c-6 -19 -17 -35 -25 -35 -20 0 -28 136 -10 165
19 31 50 -83 35 -130z"/>
<path d="M5500 3532 c0 -18 14 -25 40 -18 46 12 55 -29 10 -47 -16 -6 -30 -24
-30 -39 0 -15 -15 -28 -33 -28 -19 0 -28 -6 -21 -13 8 -7 2 -27 -11 -43 -18
-22 -18 -33 -3 -38 25 -8 13 -106 -13 -106 -9 0 -15 -17 -14 -39 2 -21 10 -34
19 -28 30 18 16 -16 -41 -99 -87 -130 -89 -135 -50 -120 30 11 28 2 -11 -60
-28 -46 -36 -74 -21 -74 19 0 19 -6 0 -29 -14 -16 -19 -39 -11 -50 20 -34 80
10 84 63 2 25 9 78 15 116 6 39 12 84 14 100 1 17 18 53 37 80 67 99 88 181
54 206 -16 12 -12 14 12 6 36 -11 47 4 61 78 4 22 14 64 22 94 11 39 6 64 -16
85 -38 39 -93 40 -93 3z"/>
<path d="M5605 3161 c-47 -39 -62 -74 -22 -49 16 10 19 -3 10 -44 -7 -32 -19
-102 -26 -155 -7 -53 -25 -101 -40 -107 -15 -6 -27 -23 -27 -38 0 -15 -9 -28
-19 -28 -31 0 -65 -80 -50 -117 11 -27 19 -22 41 27 25 58 26 58 26 10 -1 -76
13 -127 37 -135 14 -5 22 18 21 56 -2 40 10 71 31 82 18 11 32 39 32 63 -2 42
-2 42 -19 4 -10 -25 -13 21 -8 118 5 102 18 166 36 180 30 24 63 172 38 171
-9 0 -36 -17 -61 -38z"/>
<path d="M1915 2995 c-16 -25 -35 -67 -42 -95 -8 -31 -1 -24 19 19 21 47 36
60 47 43 11 -18 19 -14 26 16 16 60 -15 70 -50 17z"/>
<path d="M5482 2954 c-23 -48 -42 -95 -42 -104 0 -19 48 23 53 46 10 52 34
104 49 104 10 0 18 9 18 20 0 47 -40 14 -78 -66z"/>
<path d="M5058 2975 c-2 -25 -2 -52 0 -60 1 -8 -7 -15 -18 -15 -11 0 -20 -18
-20 -40 0 -67 35 -45 49 31 7 40 18 85 24 100 6 16 1 29 -11 29 -12 0 -23 -20
-24 -45z"/>
<path d="M5164 2806 c-36 -41 -80 -120 -97 -175 -16 -56 -38 -122 -49 -147
-10 -25 -18 -72 -18 -103 0 -32 -7 -61 -16 -64 -9 -4 -37 -65 -63 -137 -25
-71 -87 -233 -136 -360 -97 -246 -130 -360 -105 -360 8 0 14 -16 13 -35 -3
-57 45 -176 139 -346 48 -88 88 -173 88 -190 0 -16 9 -45 20 -64 11 -19 48
-107 82 -195 l62 -160 -67 -54 c-378 -308 -369 -306 -360 -83 9 203 -14 507
-37 507 -9 0 -13 -16 -9 -35 22 -112 27 -226 9 -215 -11 7 -20 58 -20 113 0
82 -6 99 -30 90 -16 -7 -30 -3 -30 8 0 10 9 19 20 19 11 0 21 29 22 65 2 62 3
62 18 15 27 -83 22 -6 -12 192 -21 127 -26 214 -15 272 9 47 14 138 11 202
l-6 116 -50 -94 c-64 -120 -100 -217 -154 -418 -24 -88 -54 -167 -67 -175 -17
-11 -18 -35 -5 -83 10 -37 17 -107 16 -155 -1 -48 4 -122 13 -165 11 -57 9
-74 -8 -64 -14 9 -18 3 -11 -17 7 -17 22 -31 34 -31 15 0 15 -7 -1 -23 -15
-15 -19 -56 -11 -111 11 -79 -32 -230 -75 -266 -36 -30 -36 -80 0 -80 28 0 49
29 77 105 22 58 47 103 56 101 31 -7 50 -124 28 -166 -43 -81 200 -56 247 25
35 62 38 63 65 26 25 -35 38 -29 30 15 -2 10 6 11 17 5 27 -17 105 26 91 49
-6 10 7 28 29 40 23 12 41 35 41 51 0 17 16 36 35 43 19 6 55 35 80 62 67 74
83 0 59 -267 -8 -80 -7 -81 58 -83 72 -2 116 69 94 153 -6 23 -1 41 12 41 12
0 22 -11 22 -25 1 -17 7 -15 20 5 15 23 19 18 20 -25 0 -30 -8 -55 -18 -55
-10 0 -23 -14 -30 -31 -6 -17 -3 -26 7 -20 9 6 22 0 28 -14 5 -14 11 -5 11 19
1 24 18 53 37 64 19 12 25 21 12 21 -13 1 -30 37 -37 81 -16 94 -48 127 -38
39 5 -37 0 -56 -12 -49 -11 7 -20 59 -20 116 -1 78 -6 96 -21 74 -17 -24 -20
-20 -17 20 2 28 -12 86 -31 130 -69 156 -78 180 -82 219 -2 22 -13 42 -25 46
-11 4 -32 52 -46 106 -16 63 -31 90 -41 74 -11 -16 -16 -6 -17 28 0 29 -13 58
-30 64 -16 7 -30 29 -30 50 0 58 -73 274 -113 335 -26 40 -30 57 -12 63 14 5
25 21 25 37 0 15 11 28 25 28 17 1 16 6 -4 19 -26 16 -25 23 2 55 25 28 97
360 97 447 0 41 40 16 42 -26 1 -25 14 14 28 85 45 221 73 320 89 320 9 0 22
22 29 50 7 27 23 48 35 45 12 -3 26 9 31 25 7 24 5 24 -10 3 -10 -14 -26 -26
-36 -25 -10 1 -34 -11 -53 -28 -19 -16 -35 -27 -35 -25 2 49 71 212 111 265
70 91 56 89 -27 -4z m-767 -1941 l-3 -195 -15 150 c-13 135 -8 240 13 240 4 0
7 -88 5 -195z m235 -445 c-1 -66 -7 -120 -12 -120 -6 0 -8 -43 -4 -95 5 -82 2
-90 -19 -55 -27 43 -37 230 -12 230 8 0 15 30 15 67 0 55 12 93 31 93 2 0 2
-54 1 -120z m-104 -203 c-6 -10 1 -33 15 -51 23 -28 22 -31 -2 -23 -17 6 -36
32 -43 58 l-14 49 -3 -50 -4 -50 -19 48 c-15 37 -11 55 17 82 37 36 82 -16 53
-63z"/>
<path d="M4970 2840 c-7 -11 -6 -30 1 -41 7 -12 -3 -39 -22 -60 -19 -21 -29
-55 -24 -77 6 -22 1 -43 -10 -47 -12 -4 -22 -41 -24 -83 -2 -50 -15 -82 -38
-95 -27 -16 -32 -34 -22 -81 9 -42 6 -57 -9 -47 -13 8 -17 2 -10 -17 6 -16
-16 -82 -49 -146 -98 -187 -123 -259 -91 -259 14 0 22 7 16 16 -6 10 -1 17 11
17 11 0 21 26 21 57 0 32 23 91 51 132 61 91 115 239 90 247 -11 4 -14 19 -8
35 6 16 18 24 27 19 32 -20 48 20 155 370 8 27 6 27 -13 0 -22 -32 -32 -10
-23 55 3 30 -12 33 -29 5z"/>
<path d="M1853 2783 c-39 -43 -42 -63 -8 -63 14 0 35 23 48 50 27 59 7 65 -40
13z"/>
<path d="M5306 2624 c-13 -8 -34 -37 -46 -64 -12 -28 -39 -81 -59 -120 -20
-38 -32 -79 -25 -89 6 -11 15 -9 19 5 19 57 46 18 35 -51 -9 -53 -7 -66 7 -44
32 48 37 150 8 144 -30 -6 -33 27 -5 45 12 7 15 21 9 31 -6 11 -4 19 6 19 19
0 93 119 81 130 -4 4 -18 1 -30 -6z"/>
<path d="M5363 2573 c-33 -35 -37 -51 -19 -69 19 -19 16 -24 -11 -24 -20 0
-30 -8 -24 -18 6 -10 0 -23 -14 -29 -14 -5 -16 -10 -5 -11 57 -2 173 161 132
187 -9 5 -35 -11 -59 -36z"/>
<path d="M5455 2588 c-7 -7 -8 -24 -2 -38 5 -15 -3 -52 -19 -83 -47 -93 -57
-160 -25 -160 16 0 34 21 40 46 6 26 20 47 30 47 10 0 14 42 10 93 -8 97 -15
115 -34 95z"/>
<path d="M1551 2458 c-28 -59 -51 -120 -51 -134 0 -15 -8 -21 -18 -16 -17 11
-42 -78 -42 -153 0 -37 4 -36 50 13 28 30 50 63 50 74 0 11 7 16 16 10 9 -5
13 14 9 44 -4 30 7 99 23 153 42 135 23 140 -37 9z"/>
<path d="M5611 2469 c-19 -49 -30 -104 -23 -120 6 -17 -2 -36 -18 -42 -40 -15
-40 -127 0 -127 20 0 30 20 30 60 0 33 9 60 20 60 11 0 20 43 20 95 1 61 7 85
18 68 22 -35 40 8 26 62 -14 57 -36 41 -73 -56z"/>
<path d="M1739 2388 c-32 -37 -27 -191 6 -211 17 -10 13 -26 -14 -55 -30 -34
-35 -63 -26 -171 6 -80 2 -132 -10 -136 -14 -5 -13 -21 2 -49 12 -23 28 -92
35 -153 7 -62 21 -107 31 -101 10 6 13 18 8 27 -6 9 -14 55 -18 103 -5 49 -11
97 -14 108 -4 11 0 65 7 120 24 175 34 372 18 363 -21 -13 -16 72 7 108 43 70
18 108 -32 47z"/>
<path d="M1621 2311 c-26 -66 -27 -111 -3 -111 20 0 50 138 34 155 -6 6 -20
-14 -31 -44z"/>
<path d="M5134 2285 c-18 -20 -26 -46 -18 -58 17 -28 51 5 60 58 7 44 -2 44
-42 0z"/>
<path d="M5358 2228 c-37 -45 -39 -169 -3 -218 28 -39 28 -39 15 5 -9 31 -3
49 19 57 17 7 31 21 31 31 0 11 -10 13 -23 5 -16 -10 -19 2 -9 41 9 35 6 50
-7 41 -29 -17 -26 17 3 46 13 13 19 24 12 24 -6 0 -23 -15 -38 -32z"/>
<path d="M5198 2190 c-17 -155 -10 -185 22 -100 11 30 12 67 1 95 -17 42 -19
42 -23 5z"/>
<path d="M1603 2163 c-2 -15 -16 -22 -32 -16 -20 7 -37 -17 -60 -82 -43 -128
-41 -185 8 -185 51 0 33 -52 -22 -67 -55 -14 -37 -61 25 -66 49 -4 74 104 33
144 -8 9 -5 27 7 41 12 15 18 38 13 52 -5 14 4 35 20 47 18 13 25 45 20 90 -5
38 -10 57 -12 42z"/>
<path d="M4655 2119 c-18 -38 -36 -54 -44 -41 -17 27 -51 29 -51 2 0 -11 11
-18 25 -15 13 3 27 -15 31 -40 4 -25 -3 -45 -16 -45 -12 0 -16 -10 -9 -22 19
-31 39 -2 76 110 38 115 32 141 -12 51z"/>
<path d="M4446 2033 c8 -20 0 -64 -17 -99 -29 -59 -29 -61 1 -24 61 74 67 99
34 129 -28 26 -30 26 -18 -6z"/>
<path d="M5486 1975 c-60 -103 -92 -233 -66 -265 16 -19 16 -28 0 -33 -33 -11
12 -117 50 -117 38 0 38 23 0 113 -41 98 -38 140 19 262 55 118 54 138 -3 40z"/>
<path d="M3 1505 c0 -324 7 -485 20 -485 13 0 16 21 9 50 -9 37 -5 50 18 50
16 0 30 -9 30 -20 0 -11 15 -20 34 -20 29 0 29 4 -5 29 -35 27 -36 30 -4 30
55 1 41 34 -25 61 -58 24 -82 60 -40 60 28 0 25 67 -5 99 -14 15 -15 21 -3 15
14 -8 20 39 18 152 -2 90 4 180 14 199 10 20 10 35 0 35 -20 0 -17 123 4 157
9 14 3 18 -15 11 -18 -7 -33 3 -39 26 -6 20 -10 -182 -11 -449z"/>
<path d="M5553 1924 c-22 -35 -29 -264 -7 -250 10 6 14 39 8 73 -5 35 -1 79
10 99 23 45 13 117 -11 78z"/>
<path d="M4461 1859 c-33 -87 -39 -139 -18 -139 10 0 17 19 17 41 0 23 10 60
21 81 12 22 18 51 14 64 -4 12 -20 -8 -34 -47z"/>
<path d="M5340 1872 c0 -27 -11 -52 -25 -57 -19 -6 -18 -21 4 -67 l28 -58 15
80 c22 112 21 150 -2 150 -11 0 -20 -22 -20 -48z"/>
<path d="M5855 1858 c-46 -26 -44 -102 4 -181 21 -35 34 -71 29 -80 -5 -9 0
-34 12 -57 18 -33 15 -40 -14 -40 -20 0 -27 -7 -16 -15 11 -8 22 -36 25 -63 5
-41 1 -44 -26 -21 -28 23 -30 19 -17 -33 8 -32 23 -61 33 -65 10 -4 36 -36 57
-70 l38 -63 0 55 c0 30 -8 55 -19 55 -11 0 -11 25 0 63 12 44 11 73 -5 92 -39
47 -44 275 -5 237 18 -18 26 -40 20 -50 -6 -11 -1 -26 12 -34 37 -22 4 138
-45 221 -23 39 -43 71 -45 70 -2 0 -19 -9 -38 -21z"/>
<path d="M4603 1718 c-2 -41 3 -79 12 -85 9 -5 17 5 17 23 0 19 6 57 14 86 9
35 5 51 -13 51 -15 0 -27 -29 -30 -75z"/>
<path d="M2132 1745 c-19 -57 -5 -78 58 -90 40 -7 46 -4 29 17 -12 14 -36 20
-54 13 -21 -8 -27 -4 -17 12 8 13 37 19 64 14 27 -5 44 0 37 10 -6 11 -28 19
-49 19 -20 0 -41 11 -45 25 -5 14 -15 6 -23 -20z"/>
<path d="M5143 1600 c-4 -61 2 -82 21 -75 37 12 42 79 11 122 -24 33 -27 28
-32 -47z"/>
<path d="M2131 1622 c-6 -9 7 -22 29 -28 45 -12 55 -74 12 -74 -15 0 -31 -26
-36 -60 -5 -33 -2 -60 7 -60 10 0 17 10 17 22 0 12 14 17 31 10 24 -9 29 -2
19 28 -7 23 -4 40 9 40 31 0 26 78 -8 111 -32 33 -64 37 -80 11z"/>
<path d="M5520 1629 c0 -28 62 -154 71 -144 13 12 -43 155 -60 155 -6 0 -11
-5 -11 -11z"/>
<path d="M1553 1583 c-46 -51 -46 -119 0 -80 31 24 33 21 21 -38 -9 -46 -6
-63 12 -60 16 3 25 -32 27 -114 2 -66 14 -123 25 -127 12 -4 17 -16 11 -26 -6
-10 -2 -18 10 -18 11 0 21 9 21 20 0 36 4 49 23 85 12 23 10 50 -6 80 -14 25
-23 65 -20 90 4 30 -5 45 -26 45 -20 0 -31 18 -31 50 0 28 -9 50 -20 50 -11 0
-20 14 -20 32 0 20 11 28 30 21 17 -7 30 -3 30 8 0 32 -52 21 -87 -18z"/>
<path d="M3069 1566 c6 -13 3 -29 -8 -36 -21 -12 96 -207 126 -209 9 -1 34
-21 55 -46 34 -41 37 -41 24 -5 -24 68 -120 210 -133 196 -7 -7 -13 1 -13 17
0 16 -14 47 -31 68 -18 22 -27 28 -20 15z"/>
<path d="M4395 1495 c-6 -36 -6 -69 -2 -74 15 -17 46 47 47 94 0 69 -34 54
-45 -20z"/>
<path d="M5633 1480 c20 -33 52 -60 71 -60 47 0 46 9 -15 69 -69 69 -99 64
-56 -9z"/>
<path d="M5107 1483 c-1 -18 -8 -51 -16 -73 -11 -28 -9 -32 5 -13 30 42 50 -8
23 -58 -23 -44 -8 -85 17 -46 8 11 25 25 39 29 19 6 18 21 -5 65 -38 74 -39
112 -1 62 29 -38 30 -37 30 11 1 59 -89 81 -92 23z"/>
<path d="M5340 1410 c0 -27 8 -50 18 -50 23 0 45 58 31 82 -22 35 -49 17 -49
-32z"/>
<path d="M2950 1400 c-7 -12 -21 -15 -31 -9 -24 15 -24 -13 1 -51 11 -16 20
-21 20 -10 1 23 39 -32 40 -56 0 -9 -9 -11 -20 -4 -11 7 -14 -1 -8 -19 7 -17
20 -26 29 -20 33 20 6 -137 -28 -161 -18 -13 -33 -36 -33 -51 0 -14 6 -20 13
-13 7 7 30 3 53 -9 35 -19 39 -16 29 21 -7 27 -4 37 10 29 14 -9 17 17 10 79
-6 56 -2 95 11 99 13 5 7 42 -17 101 -39 95 -56 111 -79 74z"/>
<path d="M5426 1301 c1 -43 8 -75 16 -70 8 5 28 -4 45 -21 46 -46 53 -38 53
60 0 50 -9 90 -20 90 -11 0 -20 -10 -20 -21 0 -12 -9 -16 -20 -9 -12 7 -15 21
-9 31 6 11 -2 19 -18 19 -20 0 -28 -23 -27 -79z"/>
<path d="M5571 1305 c44 -30 169 -262 158 -291 -7 -17 0 -54 15 -82 25 -48 27
-39 27 107 -1 100 -10 168 -26 184 -20 20 -25 19 -25 -3 0 -15 -24 1 -53 36
-29 35 -67 64 -85 64 -20 0 -24 -6 -11 -15z"/>
<path d="M1996 1130 c-28 -72 -43 -130 -33 -130 30 0 19 -40 -32 -114 -27 -40
-45 -80 -39 -89 12 -19 -71 -185 -85 -171 -6 6 0 32 12 57 19 41 18 42 -4 10
-41 -60 -82 -102 -135 -139 -219 -155 -289 -212 -285 -233 4 -13 -2 -19 -11
-14 -9 6 -33 -8 -54 -32 -24 -29 -29 -45 -13 -51 13 -4 18 -16 12 -26 -6 -10
3 -18 21 -18 18 0 27 9 20 20 -7 11 1 20 17 20 25 0 56 43 61 85 1 8 11 16 22
16 32 3 88 61 82 86 -3 13 -2 17 3 9 10 -18 64 2 115 41 22 18 2 -9 -45 -59
-47 -50 -80 -96 -74 -103 15 -14 -61 -57 -78 -44 -7 5 -9 3 -3 -4 5 -7 0 -25
-11 -38 -58 -71 31 -40 115 39 92 88 111 156 21 80 l-45 -38 38 45 c21 25 45
45 54 45 42 0 293 299 307 365 17 86 38 133 53 124 16 -10 28 81 19 147 -2 15
8 42 23 59 19 24 19 29 1 18 -30 -18 -31 -4 -5 86 32 113 11 89 -44 -49z"/>
<path d="M5860 1232 c0 -37 40 -115 69 -136 11 -8 14 -20 7 -27 -7 -7 -36 23
-64 67 -48 77 -92 121 -92 94 0 -7 45 -80 100 -162 104 -155 121 -190 70 -148
-16 14 -30 37 -30 51 0 15 -12 34 -26 43 -15 9 -42 38 -60 65 l-34 50 0 -56
c0 -30 8 -50 18 -44 10 6 14 -23 8 -66 -7 -50 -2 -83 14 -93 18 -11 21 0 11
44 -9 43 -5 59 14 59 15 0 28 -18 30 -41 2 -23 18 -52 35 -65 19 -14 39 -73
50 -150 15 -110 16 -99 9 83 -5 116 -9 227 -10 248 -2 69 -119 250 -119 184z"/>
<path d="M5120 1233 c0 -4 18 -27 40 -53 21 -25 34 -54 27 -65 -7 -10 -18 -12
-24 -2 -7 9 -26 20 -41 23 -23 5 -24 0 -6 -22 13 -15 18 -33 11 -40 -7 -7 8
-56 33 -108 25 -53 47 -105 49 -116 19 -82 95 -230 114 -218 8 5 30 -18 50
-52 32 -54 51 -67 89 -64 26 3 2 -82 -28 -99 -31 -18 -31 -22 -1 -69 25 -37
37 -44 49 -25 9 15 6 33 -8 41 -18 12 -16 21 6 36 17 11 21 20 10 20 -11 0 -9
7 3 16 18 10 14 36 -14 94 -21 44 -38 95 -38 113 -1 19 -8 37 -17 40 -9 4 -42
70 -74 147 -32 77 -63 145 -69 150 -6 6 -13 39 -16 75 -6 70 -145 241 -145
178z"/>
<path d="M3092 1189 c-6 -18 -11 -52 -10 -76 0 -23 6 -32 11 -18 6 14 24 25
40 25 19 0 28 15 23 43 -8 54 -47 70 -64 26z"/>
<path d="M3301 1160 c-1 -16 -7 -49 -13 -72 -8 -31 -1 -45 29 -53 41 -11 41
-9 -4 125 -9 27 -10 27 -12 0z"/>
<path d="M5481 1147 c0 -9 13 -34 30 -56 16 -21 29 -58 29 -81 0 -24 23 -64
51 -91 l50 -47 -31 74 c-17 41 -34 102 -38 135 -7 61 -32 108 -32 60 0 -21 -6
-21 -30 -1 -16 14 -30 17 -29 7z"/>
<path d="M5389 1070 c17 -41 31 -78 31 -82 0 -5 19 -8 41 -8 23 0 36 -9 29
-20 -7 -11 -6 -30 1 -42 10 -16 18 -15 29 3 10 15 -12 61 -54 117 -89 116
-117 128 -77 32z"/>
<path d="M4160 1044 c1 -23 39 -75 40 -54 0 11 9 7 20 -10 15 -24 19 -19 20
21 0 36 -11 51 -40 54 -22 1 -40 -4 -40 -11z"/>
<path d="M494 1014 c-7 -18 -4 -38 5 -44 11 -6 11 -37 0 -73 -9 -34 -16 -67
-15 -74 1 -7 -3 -26 -9 -43 -111 -288 19 -780 205 -780 32 0 64 10 71 21 21
34 -7 47 -40 20 -34 -28 -67 18 -42 58 8 13 0 16 -21 8 -28 -11 -30 -7 -13 23
30 54 -34 224 -102 273 -24 17 -1 77 29 77 16 0 14 -11 -5 -34 -15 -18 -17
-27 -4 -20 13 8 27 7 32 -1 5 -8 6 -4 2 10 -3 14 7 25 22 25 15 0 32 11 37 25
5 14 16 18 24 10 9 -8 5 -27 -9 -44 -20 -24 -19 -36 6 -60 27 -28 31 -27 39 4
7 28 10 26 12 -8 1 -23 16 -48 32 -54 17 -7 30 -22 30 -34 0 -12 -11 -15 -25
-6 -17 10 -16 3 3 -20 25 -30 23 -33 -10 -22 -31 11 -33 9 -8 -9 41 -29 62
-28 153 12 42 18 89 35 105 38 88 16 51 42 -52 37 -99 -5 -121 0 -137 32 -158
315 -227 463 -249 529 -51 160 -51 161 -66 124z"/>
<path d="M4100 941 c0 -43 9 -84 20 -91 11 -7 20 -28 21 -46 0 -19 18 -70 39
-114 l39 -80 -4 104 c-2 56 -10 99 -18 94 -8 -5 -28 41 -46 102 -38 130 -51
138 -51 31z"/>
<path d="M2053 895 c-8 -41 -23 -75 -33 -75 -20 0 -50 -79 -43 -115 3 -14 -9
-31 -27 -38 -40 -15 -76 -81 -59 -109 19 -30 113 105 102 147 -5 19 -3 35 4
35 24 1 87 154 79 192 -5 24 -13 11 -23 -37z"/>
<path d="M2934 904 c-32 -35 -32 -40 -4 -51 32 -13 60 27 46 68 -4 13 -21 6
-42 -17z"/>
<path d="M5693 830 c6 -17 24 -30 40 -30 16 0 24 -8 18 -18 -6 -9 3 -29 19
-42 33 -27 44 10 15 50 -30 40 -105 73 -92 40z"/>
<path d="M3325 807 c-14 -6 -20 -19 -13 -30 15 -24 -34 -62 -147 -116 -47 -23
-85 -49 -85 -60 0 -10 28 -4 62 13 34 17 68 23 75 14 7 -10 22 -20 33 -22 11
-1 36 -9 55 -17 21 -8 35 -4 35 10 0 12 -18 29 -40 37 -38 14 -37 18 20 81 78
85 80 120 5 90z"/>
<path d="M5595 773 c5 -27 -2 -55 -16 -64 -16 -9 -20 -7 -12 7 8 11 5 27 -7
34 -31 19 -24 -44 10 -77 17 -17 30 -40 30 -52 0 -11 17 -21 38 -21 21 0 43
-11 48 -25 5 -14 15 -19 23 -12 8 7 -2 43 -23 80 -20 37 -40 89 -46 115 -5 27
-20 52 -32 56 -14 5 -19 -11 -13 -41z"/>
<path d="M2831 697 c-50 -59 -57 -95 -13 -68 34 21 106 131 85 131 -11 0 -43
-28 -72 -63z"/>
<path d="M3014 666 c-8 -13 -28 -19 -45 -13 -16 6 -29 0 -29 -14 0 -14 7 -19
15 -11 7 8 24 -15 36 -51 17 -50 25 -57 35 -31 8 20 3 34 -12 34 -17 1 -16 6
3 18 15 9 24 34 19 54 -5 26 -12 31 -22 14z"/>
<path d="M4877 507 c-29 -59 -46 -107 -38 -107 23 0 124 196 106 206 -8 5 -39
-40 -68 -99z"/>
<path d="M5892 603 c-8 -13 -4 -23 8 -23 15 0 19 -20 11 -57 -7 -31 -3 -82 9
-113 15 -39 15 -63 1 -77 -29 -29 -26 -46 9 -46 32 0 36 16 30 153 -4 100 -46
199 -68 163z"/>
<path d="M5760 582 c0 -11 9 -25 20 -32 29 -18 25 -125 -5 -137 -15 -6 -16
-11 -3 -11 37 -3 109 72 97 101 -14 36 -109 105 -109 79z"/>
<path d="M1957 536 c-15 -25 -40 -70 -55 -99 -15 -30 -44 -58 -64 -63 -21 -6
-38 -26 -38 -44 0 -22 -11 -30 -29 -23 -15 6 -31 4 -35 -4 -3 -8 -33 -33 -66
-57 -57 -39 -165 -206 -134 -206 8 0 41 27 74 60 33 33 110 108 170 165 103
98 235 287 214 307 -5 5 -21 -11 -37 -36z"/>
<path d="M4118 455 c-1 -5 -5 -27 -27 -138 -8 -44 -6 -57 6 -37 22 36 49 180
34 180 -6 0 -12 -2 -13 -5z"/>
<path d="M5830 400 c-7 -11 1 -20 17 -20 17 0 27 -15 24 -35 -3 -19 -1 -24 3
-10 5 14 18 20 30 13 12 -8 11 4 -3 30 -24 45 -51 54 -71 22z"/>
<path d="M3460 371 c0 -17 -11 -31 -25 -31 -18 -1 -18 -5 2 -18 23 -14 21 -22
-10 -39 -20 -12 -27 -22 -14 -22 43 -2 100 109 66 130 -10 6 -19 -3 -19 -20z"/>
<path d="M5671 361 c-26 -41 11 -124 43 -98 26 22 25 28 -7 52 -32 23 -33 29
-7 45 18 12 20 20 6 20 -13 0 -29 -9 -35 -19z"/>
<path d="M311 282 c-6 -10 -2 -22 9 -25 11 -4 -3 -33 -30 -65 -60 -70 -61 -72
-9 -72 23 0 37 8 31 17 -6 9 2 16 16 16 15 0 26 -9 26 -21 -2 -104 8 -132 47
-132 32 0 37 7 22 35 -10 19 -29 87 -42 150 -22 108 -44 138 -70 97z"/>
<path d="M1043 258 c-52 -20 -142 -99 -143 -123 0 -32 35 -13 59 33 15 29 38
44 59 38 18 -4 50 10 71 33 40 44 28 49 -46 19z"/>
<path d="M4015 236 c-5 -14 -10 -30 -9 -36 0 -5 -9 -29 -22 -52 -12 -24 -17
-49 -9 -56 7 -7 29 20 49 61 21 43 29 82 19 92 -10 10 -22 6 -28 -9z"/>
<path d="M3245 171 l-43 -45 52 2 c33 1 54 15 57 37 8 54 -18 56 -66 6z"/>
<path d="M2021 181 c-17 -11 -30 -54 -32 -105 -3 -86 -3 -86 17 -21 11 36 28
65 38 65 10 0 12 -11 3 -25 -10 -17 -4 -16 19 2 43 35 44 71 2 55 -23 -9 -29
-4 -21 18 14 35 12 35 -26 11z"/>
<path d="M1343 130 c-65 -36 -98 -70 -67 -70 13 0 24 9 24 20 0 11 7 19 15 18
45 -7 82 5 92 32 14 35 0 35 -64 0z"/>
</g>
</svg>
